<svg xmlns="http://www.w3.org/2000/svg" xmlns:xlink="http://www.w3.org/1999/xlink" preserveAspectRatio="xMidYMid" width="26" height="26" viewBox="0 0 26 26">
  <defs>
    <style>
      .cls-1 {
        fill: #b6b6b6;
        fill-rule: evenodd;
      }
    </style>
  </defs>
  <path d="M25.924,18.360 C25.863,19.742 25.639,20.687 25.319,21.515 C24.644,23.262 23.262,24.644 21.514,25.319 C20.691,25.639 19.741,25.862 18.360,25.923 C16.973,25.984 16.531,25.999 13.000,25.999 C9.469,25.999 9.027,25.984 7.641,25.923 C6.259,25.862 5.314,25.639 4.486,25.319 C3.622,24.994 2.835,24.481 2.184,23.821 C1.524,23.170 1.011,22.388 0.681,21.515 C0.361,20.692 0.137,19.742 0.076,18.360 C0.015,16.974 0.000,16.532 0.000,13.002 C0.000,9.472 0.015,9.030 0.081,7.638 C0.142,6.257 0.366,5.312 0.686,4.485 C1.011,3.621 1.524,2.834 2.184,2.184 C2.835,1.518 3.617,1.010 4.491,0.680 C5.314,0.360 6.264,0.137 7.645,0.075 C9.032,0.015 9.474,-0.001 13.005,-0.001 C16.536,-0.001 16.978,0.015 18.370,0.081 C19.752,0.142 20.696,0.365 21.524,0.685 C22.388,1.010 23.175,1.523 23.826,2.184 C24.491,2.834 24.999,3.615 25.329,4.489 C25.650,5.312 25.873,6.262 25.934,7.644 C25.995,9.030 26.000,9.472 26.000,13.002 C26.000,16.532 25.985,16.974 25.924,18.360 ZM23.592,7.760 C23.536,6.495 23.323,5.805 23.145,5.348 C22.937,4.784 22.607,4.276 22.175,3.855 C21.758,3.423 21.245,3.092 20.681,2.884 C20.224,2.707 19.538,2.493 18.268,2.437 C16.901,2.377 16.490,2.361 13.015,2.361 C9.546,2.361 9.134,2.377 7.762,2.437 C6.497,2.493 5.807,2.707 5.349,2.884 C4.785,3.092 4.277,3.423 3.856,3.855 C3.419,4.271 3.089,4.784 2.880,5.348 C2.703,5.805 2.489,6.490 2.433,7.760 C2.372,9.127 2.357,9.543 2.357,13.012 C2.357,16.481 2.372,16.892 2.433,18.264 C2.489,19.528 2.703,20.219 2.880,20.677 C3.089,21.240 3.419,21.748 3.851,22.170 C4.267,22.601 4.780,22.931 5.344,23.140 C5.801,23.318 6.487,23.531 7.757,23.586 C9.124,23.647 9.540,23.663 13.010,23.663 C16.480,23.663 16.891,23.647 18.263,23.586 C19.528,23.531 20.219,23.318 20.676,23.140 C21.809,22.703 22.708,21.804 23.145,20.671 C23.323,20.214 23.536,19.528 23.592,18.259 C23.653,16.888 23.668,16.481 23.668,13.012 C23.668,9.543 23.653,9.132 23.592,7.760 ZM19.949,7.618 C19.088,7.618 18.390,6.920 18.390,6.059 C18.390,5.198 19.088,4.499 19.949,4.499 C20.811,4.499 21.509,5.198 21.509,6.059 C21.509,6.920 20.811,7.618 19.949,7.618 ZM13.005,19.681 C9.317,19.681 6.325,16.689 6.325,13.002 C6.325,9.314 9.317,6.323 13.005,6.323 C16.693,6.323 19.685,9.314 19.685,13.002 C19.685,16.689 16.693,19.681 13.005,19.681 ZM13.005,8.670 C10.612,8.670 8.672,10.609 8.672,13.002 C8.672,15.394 10.612,17.334 13.005,17.334 C15.398,17.334 17.338,15.394 17.338,13.002 C17.338,10.609 15.398,8.670 13.005,8.670 Z" class="cls-1"/>
</svg>
