<svg xmlns="http://www.w3.org/2000/svg" xmlns:xlink="http://www.w3.org/1999/xlink" preserveAspectRatio="xMidYMid" width="30" height="17" viewBox="0 0 30 17">
  <defs>
    <style>
      .cls-1 {
        fill: #b6b6b6;
        fill-rule: evenodd;
      }
    </style>
  </defs>
  <path d="M24.894,9.748 C24.409,9.153 24.548,8.888 24.894,8.356 C24.900,8.350 28.904,2.975 29.317,1.153 L29.319,1.152 C29.524,0.488 29.319,-0.001 28.328,-0.001 L25.048,-0.001 C24.213,-0.001 23.828,0.418 23.622,0.887 C23.622,0.887 21.952,4.770 19.589,7.287 C18.827,8.015 18.474,8.248 18.058,8.248 C17.853,8.248 17.534,8.015 17.534,7.351 L17.534,1.152 C17.534,0.355 17.300,-0.001 16.609,-0.001 L11.451,-0.001 C10.927,-0.001 10.616,0.371 10.616,0.717 C10.616,1.473 11.798,1.646 11.920,3.771 L11.920,8.382 C11.920,9.392 11.731,9.578 11.313,9.578 C10.197,9.578 7.491,5.679 5.887,1.216 C5.563,0.350 5.247,0.001 4.406,0.001 L1.125,0.001 C0.188,0.001 -0.000,0.419 -0.000,0.888 C-0.000,1.716 1.115,5.834 5.185,11.274 C7.898,14.988 11.718,17.000 15.193,17.000 C17.281,17.000 17.537,16.553 17.537,15.784 C17.537,12.236 17.348,11.901 18.394,11.901 C18.879,11.901 19.714,12.134 21.664,13.925 C23.893,16.049 24.259,17.000 25.507,17.000 L28.787,17.000 C29.722,17.000 30.196,16.553 29.923,15.671 C29.299,13.817 25.084,10.003 24.894,9.748 L24.894,9.748 Z" class="cls-1"/>
</svg>
