<svg xmlns="http://www.w3.org/2000/svg" xmlns:xlink="http://www.w3.org/1999/xlink" preserveAspectRatio="xMidYMid" width="21" height="24" viewBox="0 0 21 24">
  <defs>
    <style>
      .cls-1 {
        fill: #b6b6b6;
        fill-rule: evenodd;
      }
    </style>
  </defs>
  <path d="M20.296,5.271 C17.776,5.271 15.725,3.222 15.725,0.703 C15.725,0.314 15.410,-0.000 15.021,-0.000 L11.253,-0.000 C10.865,-0.000 10.550,0.314 10.550,0.703 L10.550,16.142 C10.550,17.623 9.344,18.828 7.862,18.828 C6.381,18.828 5.175,17.623 5.175,16.142 C5.175,14.661 6.381,13.456 7.862,13.456 C8.251,13.456 8.566,13.141 8.566,12.753 L8.566,8.987 C8.566,8.599 8.251,8.284 7.862,8.284 C3.527,8.284 -0.000,11.809 -0.000,16.142 C-0.000,20.474 3.527,24.000 7.862,24.000 C12.198,24.000 15.725,20.474 15.725,16.142 L15.725,9.308 C17.125,10.054 18.683,10.443 20.296,10.443 C20.685,10.443 21.000,10.129 21.000,9.740 L21.000,5.974 C21.000,5.586 20.685,5.271 20.296,5.271 L20.296,5.271 Z" class="cls-1"/>
</svg>
