<svg xmlns="http://www.w3.org/2000/svg" xmlns:xlink="http://www.w3.org/1999/xlink" preserveAspectRatio="xMidYMid" width="30" height="21" viewBox="0 0 30 21">
  <defs>
    <style>
      .cls-1 {
        fill: #b6b6b6;
        fill-rule: evenodd;
      }
    </style>
  </defs>
  <path d="M29.382,3.285 C29.036,2.000 28.023,0.987 26.738,0.642 C24.390,-0.000 15.000,-0.000 15.000,-0.000 C15.000,-0.000 5.609,-0.000 3.262,0.617 C2.001,0.963 0.964,2.001 0.618,3.285 C-0.000,5.632 -0.000,10.500 -0.000,10.500 C-0.000,10.500 -0.000,15.391 0.618,17.714 C0.964,18.998 1.977,20.011 3.262,20.357 C5.634,21.000 15.000,21.000 15.000,21.000 C15.000,21.000 24.390,21.000 26.738,20.382 C28.023,20.036 29.036,19.023 29.382,17.738 C30.000,15.391 30.000,10.524 30.000,10.524 C30.000,10.524 30.025,5.632 29.382,3.285 L29.382,3.285 ZM12.010,14.996 L12.010,6.003 L19.819,10.500 L12.010,14.996 Z" class="cls-1"/>
</svg>
