<svg xmlns="http://www.w3.org/2000/svg" xmlns:xlink="http://www.w3.org/1999/xlink" preserveAspectRatio="xMidYMid" width="35" height="35" viewBox="0 0 35 35">
  <defs>
    <style>
      .cls-1 {
        fill: #f6f6f6;
        fill-rule: evenodd;
      }
    </style>
  </defs>
  <path d="M19.717,17.569 L34.522,2.696 C35.159,2.057 35.159,1.097 34.522,0.457 C33.885,-0.183 32.930,-0.183 32.293,0.457 L17.489,15.329 L2.684,0.457 C2.048,-0.183 1.092,-0.183 0.456,0.457 C-0.181,1.097 -0.181,2.057 0.456,2.696 L15.260,17.569 L0.456,32.441 C-0.181,33.080 -0.181,34.040 0.456,34.679 C0.774,34.999 1.411,34.999 1.729,34.999 C2.047,34.999 2.684,34.999 2.684,34.679 L17.489,19.807 L32.293,34.679 C32.612,34.999 33.248,34.999 33.567,34.999 C33.885,34.999 34.522,34.999 34.522,34.679 C35.158,34.040 35.158,33.080 34.522,32.441 L19.717,17.569 Z" class="cls-1"/>
</svg>
