<svg xmlns="http://www.w3.org/2000/svg" xmlns:xlink="http://www.w3.org/1999/xlink" preserveAspectRatio="xMidYMid" width="26" height="24" viewBox="0 0 26 24">
  <defs>
    <style>
      .cls-1 {
        fill: #fd0200;
        fill-rule: evenodd;
      }
    </style>
  </defs>
  <path d="M25.774,4.783 C25.572,4.522 25.262,4.370 24.933,4.370 L4.603,4.370 L4.301,0.979 C4.251,0.424 3.790,-0.000 3.237,-0.000 L1.068,-0.000 C0.478,-0.000 -0.000,0.481 -0.000,1.075 C-0.000,1.668 0.478,2.150 1.068,2.150 L2.261,2.150 L3.431,15.282 C3.432,15.298 3.431,15.313 3.432,15.329 C3.434,15.369 3.440,15.410 3.447,15.450 L3.489,15.930 C3.490,15.939 3.491,15.948 3.492,15.957 C3.622,17.090 4.196,18.070 5.027,18.733 C4.597,19.286 4.339,19.983 4.339,20.739 C4.339,22.537 5.791,23.999 7.576,23.999 C9.361,23.999 10.814,22.537 10.814,20.739 C10.814,20.349 10.746,19.976 10.621,19.630 L16.465,19.630 C16.340,19.976 16.272,20.349 16.272,20.739 C16.272,22.537 17.724,23.999 19.509,23.999 C21.294,23.999 22.746,22.537 22.746,20.739 C22.746,18.941 21.294,17.479 19.509,17.479 L7.584,17.479 C6.772,17.479 6.066,16.986 5.761,16.268 L22.826,15.258 C23.292,15.230 23.686,14.901 23.799,14.445 L25.969,5.705 C26.048,5.384 25.977,5.044 25.774,4.783 L25.774,4.783 Z" class="cls-1"/>
</svg>
