<svg xmlns="http://www.w3.org/2000/svg" xmlns:xlink="http://www.w3.org/1999/xlink" preserveAspectRatio="xMidYMid" width="15" height="15" viewBox="0 0 15 15">
  <defs>
    <style>
      .cls-1 {
        fill: #efc724;
        fill-rule: evenodd;
      }
    </style>
  </defs>
  <path d="M14.669,6.795 C14.964,6.494 15.068,6.053 14.941,5.643 C14.813,5.234 14.481,4.941 14.073,4.879 L10.443,4.329 C10.289,4.306 10.155,4.205 10.086,4.058 L8.464,0.624 C8.281,0.238 7.912,-0.002 7.500,-0.002 C7.088,-0.002 6.718,0.238 6.536,0.624 L4.913,4.058 C4.844,4.205 4.710,4.306 4.555,4.329 L0.926,4.880 C0.518,4.941 0.185,5.234 0.058,5.644 C-0.069,6.053 0.035,6.494 0.330,6.795 L2.956,9.468 C3.068,9.582 3.119,9.746 3.093,9.906 L2.473,13.681 C2.418,14.013 2.502,14.336 2.708,14.591 C3.028,14.988 3.586,15.109 4.033,14.864 L7.279,13.082 C7.414,13.008 7.585,13.008 7.720,13.082 L10.966,14.864 C11.124,14.951 11.293,14.995 11.467,14.995 C11.784,14.995 12.085,14.847 12.291,14.591 C12.498,14.336 12.581,14.012 12.526,13.681 L11.906,9.906 C11.880,9.746 11.931,9.582 12.043,9.468 L14.669,6.795 Z" class="cls-1"/>
</svg>
