<svg xmlns="http://www.w3.org/2000/svg" xmlns:xlink="http://www.w3.org/1999/xlink" preserveAspectRatio="xMidYMid" width="7" height="16" viewBox="0 0 7 16">
  <defs>
    <style>
      .cls-1 {
        fill: #a2a2a2;
        fill-rule: evenodd;
      }
    </style>
  </defs>
  <path d="M6.791,14.272 L6.569,15.186 C5.905,15.451 5.375,15.652 4.980,15.791 C4.584,15.930 4.124,15.999 3.601,15.999 C2.797,15.999 2.171,15.800 1.725,15.405 C1.279,15.009 1.056,14.506 1.056,13.896 C1.056,13.660 1.072,13.418 1.106,13.170 C1.140,12.922 1.194,12.644 1.268,12.332 L2.098,9.365 C2.171,9.081 2.234,8.812 2.285,8.558 C2.335,8.305 2.360,8.072 2.360,7.863 C2.360,7.484 2.282,7.219 2.128,7.070 C1.973,6.921 1.678,6.846 1.240,6.846 C1.025,6.846 0.805,6.880 0.580,6.948 C0.354,7.015 0.161,7.080 -0.001,7.141 L0.221,6.226 C0.765,6.002 1.285,5.811 1.782,5.652 C2.279,5.493 2.749,5.413 3.193,5.413 C3.992,5.413 4.608,5.608 5.041,5.998 C5.473,6.388 5.690,6.893 5.690,7.517 C5.690,7.645 5.676,7.872 5.645,8.197 C5.615,8.522 5.560,8.821 5.479,9.092 L4.652,12.046 C4.584,12.283 4.523,12.555 4.471,12.860 C4.416,13.163 4.390,13.395 4.390,13.550 C4.390,13.943 4.476,14.211 4.650,14.353 C4.825,14.495 5.126,14.566 5.554,14.566 C5.755,14.566 5.984,14.530 6.238,14.460 C6.492,14.389 6.676,14.327 6.791,14.272 ZM7.001,1.868 C7.001,2.383 6.809,2.823 6.422,3.184 C6.037,3.547 5.573,3.728 5.030,3.728 C4.485,3.728 4.020,3.547 3.631,3.184 C3.242,2.823 3.047,2.383 3.047,1.868 C3.047,1.355 3.242,0.915 3.631,0.548 C4.019,0.183 4.486,0.000 5.030,0.000 C5.573,0.000 6.037,0.183 6.422,0.548 C6.809,0.915 7.001,1.355 7.001,1.868 Z" class="cls-1"/>
</svg>
