<svg xmlns="http://www.w3.org/2000/svg" xmlns:xlink="http://www.w3.org/1999/xlink" preserveAspectRatio="xMidYMid" width="15" height="20" viewBox="0 0 15 20">
  <defs>
    <style>
      .cls-1 {
        fill: #a2a2a2;
        fill-rule: evenodd;
      }
    </style>
  </defs>
  <path d="M7.959,19.827 C7.828,19.942 7.664,19.999 7.500,19.999 C7.336,19.999 7.172,19.942 7.041,19.827 C6.753,19.575 -0.000,13.590 -0.000,7.460 C-0.000,3.346 3.364,-0.001 7.500,-0.001 C11.635,-0.001 15.000,3.346 15.000,7.460 C15.000,13.590 8.246,19.575 7.959,19.827 ZM7.500,1.380 C4.130,1.380 1.389,4.108 1.389,7.460 C1.389,12.097 6.007,16.923 7.500,18.362 C8.993,16.923 13.611,12.097 13.611,7.460 C13.611,4.108 10.870,1.380 7.500,1.380 ZM7.500,10.936 C5.585,10.936 4.028,9.377 4.028,7.460 C4.028,5.544 5.585,3.985 7.500,3.985 C9.414,3.985 10.972,5.544 10.972,7.460 C10.972,9.377 9.414,10.936 7.500,10.936 ZM7.500,5.366 C6.351,5.366 5.417,6.305 5.417,7.460 C5.417,8.615 6.351,9.555 7.500,9.555 C8.649,9.555 9.583,8.615 9.583,7.460 C9.583,6.305 8.649,5.366 7.500,5.366 Z" class="cls-1"/>
</svg>
