<svg xmlns="http://www.w3.org/2000/svg" xmlns:xlink="http://www.w3.org/1999/xlink" preserveAspectRatio="xMidYMid" width="50" height="50" viewBox="0 0 50 50">
  <defs>
    <style>
      .cls-1 {
        fill: #f4f4f4;
      }

      .cls-2 {
        fill: #2b2c27;
        fill-rule: evenodd;
      }
    </style>
  </defs>
  <g>
    <circle cx="25" cy="25" r="25" class="cls-1"/>
    <path d="M34.608,23.960 L26.252,15.521 C25.562,14.825 24.439,14.824 23.747,15.522 L15.392,23.960 C14.869,24.488 14.869,25.343 15.392,25.871 C15.914,26.399 16.761,26.399 17.284,25.871 L18.416,24.727 L18.416,33.560 C18.416,34.355 19.054,35.000 19.842,35.000 L22.887,35.000 L22.887,30.987 C22.887,30.675 23.138,30.422 23.447,30.422 L26.554,30.422 C26.863,30.422 27.113,30.675 27.113,30.987 L27.113,35.000 L30.158,35.000 C30.946,35.000 31.584,34.355 31.584,33.560 L31.584,24.727 L32.716,25.871 C32.977,26.135 33.320,26.267 33.662,26.267 C34.004,26.267 34.346,26.135 34.608,25.871 C35.131,25.343 35.131,24.488 34.608,23.960 Z" class="cls-2"/>
  </g>
</svg>
