<svg xmlns="http://www.w3.org/2000/svg" xmlns:xlink="http://www.w3.org/1999/xlink" preserveAspectRatio="xMidYMid" width="50" height="50" viewBox="0 0 50 50">
  <defs>
    <style>
      .cls-1 {
        fill: #f4f4f4;
      }

      .cls-2 {
        fill: #2b2c27;
        fill-rule: evenodd;
      }
    </style>
  </defs>
  <g>
    <circle cx="25" cy="25" r="25" class="cls-1"/>
    <path d="M42.186,31.964 L41.365,31.964 C41.234,28.419 38.365,25.570 34.832,25.570 C31.299,25.570 28.429,28.419 28.299,31.964 L22.822,31.964 C22.579,31.964 22.349,31.854 22.195,31.664 C22.040,31.474 21.979,31.225 22.024,30.983 L25.354,13.666 C25.427,13.279 25.762,13.000 26.151,13.000 L34.530,13.000 C34.873,13.000 35.179,13.217 35.296,13.543 L38.301,21.943 C38.417,22.268 38.719,22.484 39.060,22.487 L39.822,22.493 C41.582,22.508 43.000,23.955 43.000,25.736 L43.000,31.140 C43.000,31.595 42.636,31.964 42.186,31.964 ZM35.431,19.515 L34.187,15.237 C34.129,15.035 33.945,14.897 33.738,14.897 L27.245,14.897 C27.016,14.897 26.820,15.065 26.782,15.293 L26.079,19.571 C26.056,19.708 26.094,19.850 26.183,19.956 C26.272,20.063 26.403,20.124 26.541,20.124 L34.980,20.124 C35.129,20.124 35.267,20.053 35.356,19.934 C35.445,19.814 35.473,19.659 35.431,19.515 ZM20.595,18.792 L15.506,18.792 C14.835,18.792 14.291,18.241 14.291,17.561 C14.291,16.882 14.835,16.331 15.506,16.331 L20.595,16.331 C21.267,16.331 21.810,16.882 21.810,17.561 C21.810,18.241 21.267,18.792 20.595,18.792 ZM20.595,22.482 C20.595,23.161 20.051,23.712 19.380,23.712 L11.861,23.712 C11.189,23.712 10.645,23.161 10.645,22.482 C10.645,21.803 11.189,21.252 11.861,21.252 L19.380,21.252 C20.051,21.252 20.595,21.802 20.595,22.482 ZM19.380,27.402 C19.380,28.081 18.836,28.632 18.165,28.632 L8.215,28.632 C7.543,28.632 7.000,28.081 7.000,27.402 C7.000,26.723 7.543,26.172 8.215,26.172 L18.165,26.172 C18.836,26.172 19.380,26.723 19.380,27.402 ZM34.832,27.415 C37.441,27.415 39.566,29.565 39.566,32.208 C39.566,34.850 37.441,37.000 34.832,37.000 C32.221,37.000 30.098,34.850 30.098,32.208 C30.098,29.565 32.221,27.415 34.832,27.415 ZM34.832,34.540 C36.103,34.540 37.135,33.494 37.135,32.208 C37.135,30.922 36.103,29.876 34.832,29.876 C33.561,29.876 32.528,30.922 32.528,32.208 C32.528,33.494 33.561,34.540 34.832,34.540 Z" class="cls-2"/>
  </g>
</svg>
