<svg xmlns="http://www.w3.org/2000/svg" xmlns:xlink="http://www.w3.org/1999/xlink" preserveAspectRatio="xMidYMid" width="50" height="50" viewBox="0 0 50 50">
  <defs>
    <style>
      .cls-1 {
        fill: #f4f4f4;
      }

      .cls-2 {
        fill: #2b2c27;
        fill-rule: evenodd;
      }
    </style>
  </defs>
  <g>
    <circle cx="25" cy="25" r="25" class="cls-1"/>
    <path d="M42.968,19.167 L40.935,32.678 C40.730,34.024 39.633,35.000 38.322,35.000 L24.144,35.000 C23.369,35.000 22.638,34.649 22.135,34.039 C21.633,33.429 21.413,32.625 21.531,31.832 L23.565,18.321 C23.769,16.976 24.867,15.999 26.177,15.999 L40.356,15.999 C41.130,15.999 41.862,16.350 42.365,16.960 C42.867,17.570 43.086,18.374 42.968,19.167 ZM40.485,18.630 C40.453,18.592 40.406,18.568 40.356,18.568 L35.308,18.568 L34.657,22.206 C34.584,22.613 34.241,22.908 33.843,22.908 L30.967,22.908 C30.721,22.908 30.488,22.794 30.330,22.598 C30.172,22.401 30.108,22.143 30.153,21.892 L30.747,18.568 L26.177,18.568 C26.093,18.568 26.023,18.632 26.010,18.719 L23.976,32.227 C23.968,32.277 23.982,32.330 24.014,32.369 C24.047,32.407 24.094,32.431 24.144,32.431 L38.322,32.431 C38.407,32.431 38.477,32.367 38.490,32.280 L40.524,18.772 C40.531,18.722 40.518,18.670 40.485,18.630 ZM20.836,21.646 L15.657,21.646 C14.973,21.646 14.420,21.071 14.420,20.362 C14.420,19.653 14.973,19.078 15.657,19.078 L20.836,19.078 C21.519,19.078 22.072,19.653 22.072,20.362 C22.072,21.071 21.519,21.647 20.836,21.646 ZM20.836,25.500 C20.836,26.209 20.282,26.784 19.599,26.784 L11.947,26.784 C11.263,26.784 10.710,26.209 10.710,25.500 C10.710,24.790 11.263,24.215 11.947,24.215 L19.599,24.215 C20.282,24.215 20.836,24.790 20.836,25.500 ZM19.599,30.637 C19.599,31.346 19.046,31.921 18.362,31.921 L8.237,31.921 C7.553,31.921 7.000,31.346 7.000,30.637 C7.000,29.928 7.553,29.353 8.237,29.353 L18.362,29.353 C19.046,29.353 19.599,29.928 19.599,30.637 Z" class="cls-2"/>
  </g>
</svg>
