<svg xmlns="http://www.w3.org/2000/svg" xmlns:xlink="http://www.w3.org/1999/xlink" preserveAspectRatio="xMidYMid" width="27" height="24" viewBox="0 0 27 24">
  <defs>
    <style>
      .cls-1 {
        fill: #fff;
        fill-rule: evenodd;
      }
    </style>
  </defs>
  <path d="M26.766,4.782 C26.556,4.521 26.233,4.369 25.892,4.369 L4.780,4.369 L4.466,0.978 C4.415,0.424 3.936,-0.001 3.362,-0.001 L1.109,-0.001 C0.496,-0.001 -0.000,0.481 -0.000,1.074 C-0.000,1.668 0.496,2.150 1.109,2.150 L2.348,2.150 L3.563,15.281 C3.564,15.297 3.563,15.312 3.564,15.328 C3.566,15.369 3.572,15.409 3.579,15.450 L3.623,15.929 C3.624,15.938 3.625,15.948 3.626,15.957 C3.761,17.089 4.358,18.069 5.220,18.733 C4.773,19.286 4.506,19.983 4.506,20.739 C4.506,22.536 6.014,23.999 7.868,23.999 C9.721,23.999 11.230,22.536 11.230,20.739 C11.230,20.349 11.159,19.975 11.029,19.629 L17.098,19.629 C16.968,19.975 16.897,20.349 16.897,20.739 C16.897,22.536 18.406,23.999 20.259,23.999 C22.113,23.999 23.621,22.536 23.621,20.739 C23.621,18.941 22.113,17.478 20.259,17.478 L7.875,17.478 C7.033,17.478 6.299,16.985 5.982,16.268 L23.703,15.257 C24.187,15.230 24.597,14.901 24.714,14.444 L26.968,5.705 C27.050,5.383 26.976,5.043 26.766,4.782 L26.766,4.782 Z" class="cls-1"/>
</svg>
