<svg xmlns="http://www.w3.org/2000/svg" xmlns:xlink="http://www.w3.org/1999/xlink" preserveAspectRatio="xMidYMid" width="20" height="16" viewBox="0 0 20 16">
  <defs>
    <style>
      .cls-1 {
        fill: #fff;
        fill-rule: evenodd;
      }
    </style>
  </defs>
  <path d="M19.000,9.000 L1.000,9.000 C0.448,9.000 -0.000,8.552 -0.000,7.999 C-0.000,7.447 0.448,6.999 1.000,6.999 L19.000,6.999 C19.552,6.999 20.000,7.447 20.000,7.999 C20.000,8.552 19.552,9.000 19.000,9.000 ZM19.000,1.999 L1.000,1.999 C0.448,1.999 -0.000,1.551 -0.000,1.000 C-0.000,0.447 0.448,-0.001 1.000,-0.001 L19.000,-0.001 C19.552,-0.001 20.000,0.447 20.000,1.000 C20.000,1.551 19.552,1.999 19.000,1.999 ZM1.000,14.000 L19.000,14.000 C19.552,14.000 20.000,14.447 20.000,14.999 C20.000,15.552 19.552,15.999 19.000,15.999 L1.000,15.999 C0.448,15.999 -0.000,15.552 -0.000,14.999 C-0.000,14.447 0.448,14.000 1.000,14.000 Z" class="cls-1"/>
</svg>
