<svg xmlns="http://www.w3.org/2000/svg" xmlns:xlink="http://www.w3.org/1999/xlink" preserveAspectRatio="xMidYMid" width="149.5" height="35" viewBox="0 0 149.5 35">
  <defs>
    <style>
      .cls-1, .cls-3 {
        fill: #2b2c27;
      }

      .cls-2 {
        fill: #fff;
      }

      .cls-2, .cls-3 {
        fill-rule: evenodd;
      }
    </style>
  </defs>
  <g>
    <g>
      <circle cx="17.5" cy="17.5" r="17.5" class="cls-1"/>
      <path d="M20.375,25.000 L23.861,25.000 L18.666,17.100 L23.715,10.781 L20.111,10.781 L16.488,15.459 L15.199,17.227 L15.199,10.781 L12.270,10.781 L12.270,25.000 L15.199,25.000 L15.199,20.937 L16.723,19.297 L20.375,25.000 Z" class="cls-2"/>
    </g>
    <path d="M145.127,16.709 L145.127,25.000 L142.305,25.000 L142.305,14.434 L149.502,14.434 L149.502,16.709 L145.127,16.709 ZM137.422,24.053 C136.738,24.814 135.850,25.195 134.756,25.195 C133.721,25.195 132.863,24.896 132.183,24.297 C131.502,23.698 131.162,22.943 131.162,22.031 C131.162,20.912 131.577,20.052 132.407,19.453 C133.237,18.854 134.437,18.551 136.006,18.545 L137.305,18.545 L137.305,17.939 C137.305,17.451 137.179,17.061 136.929,16.768 C136.678,16.475 136.283,16.328 135.742,16.328 C135.267,16.328 134.894,16.442 134.624,16.670 C134.354,16.898 134.219,17.210 134.219,17.607 L131.396,17.607 C131.396,16.996 131.585,16.429 131.963,15.908 C132.340,15.387 132.874,14.979 133.564,14.683 C134.254,14.386 135.029,14.238 135.889,14.238 C137.191,14.238 138.224,14.565 138.989,15.220 C139.754,15.874 140.137,16.794 140.137,17.979 L140.137,22.559 C140.143,23.561 140.283,24.320 140.557,24.834 L140.557,25.000 L137.705,25.000 C137.575,24.746 137.480,24.430 137.422,24.053 ZM137.305,20.195 L136.250,20.195 C134.837,20.195 134.085,20.684 133.994,21.660 L133.984,21.826 C133.984,22.178 134.108,22.467 134.355,22.695 C134.603,22.923 134.941,23.037 135.371,23.037 C135.788,23.037 136.172,22.944 136.523,22.759 C136.875,22.573 137.135,22.324 137.305,22.012 L137.305,20.195 ZM126.309,18.516 L123.779,25.000 L121.885,25.000 L119.404,18.623 L119.404,25.000 L116.582,25.000 L116.582,14.434 L120.088,14.434 L122.832,21.670 L125.596,14.434 L129.131,14.434 L129.131,25.000 L126.309,25.000 L126.309,18.516 ZM110.547,25.195 C109.479,25.195 108.616,24.824 107.959,24.082 L107.959,29.062 L105.137,29.062 L105.137,14.434 L107.754,14.434 L107.852,15.469 C108.535,14.648 109.427,14.238 110.527,14.238 C111.829,14.238 112.842,14.720 113.564,15.684 C114.287,16.647 114.648,17.975 114.648,19.668 L114.648,19.814 C114.648,21.442 114.279,22.746 113.540,23.726 C112.801,24.706 111.803,25.195 110.547,25.195 ZM111.304,17.334 C110.955,16.800 110.449,16.533 109.785,16.533 C108.900,16.533 108.291,16.872 107.959,17.549 L107.959,21.875 C108.304,22.572 108.919,22.920 109.805,22.920 C111.152,22.920 111.826,21.816 111.826,19.609 C111.826,18.626 111.652,17.868 111.304,17.334 ZM97.632,22.295 C98.091,22.712 98.672,22.920 99.375,22.920 C100.462,22.920 101.312,22.526 101.924,21.738 L103.311,23.291 C102.887,23.890 102.314,24.357 101.592,24.692 C100.869,25.028 100.068,25.195 99.189,25.195 C97.640,25.195 96.378,24.720 95.405,23.770 C94.432,22.819 93.945,21.553 93.945,19.971 L93.945,19.697 C93.945,18.636 94.150,17.687 94.561,16.851 C94.971,16.014 95.552,15.370 96.304,14.917 C97.056,14.465 97.913,14.238 98.877,14.238 C100.322,14.238 101.460,14.694 102.290,15.605 C103.120,16.517 103.535,17.809 103.535,19.482 L103.535,20.635 L96.807,20.635 C96.898,21.325 97.173,21.878 97.632,22.295 ZM100.762,18.711 L100.762,18.485 C100.749,17.858 100.579,17.372 100.254,17.029 C99.928,16.685 99.466,16.514 98.867,16.514 C98.307,16.514 97.853,16.703 97.505,17.083 C97.157,17.462 96.934,18.005 96.836,18.711 L100.762,18.711 ZM90.078,25.000 L83.818,25.000 L83.818,28.174 L80.938,28.174 L80.938,22.725 L81.846,22.725 C82.484,22.048 82.917,21.377 83.145,20.713 C83.372,20.049 83.499,19.108 83.525,17.891 L83.604,14.434 L91.377,14.434 L91.377,22.725 L92.900,22.725 L92.900,28.174 L90.078,28.174 L90.078,25.000 ZM88.564,16.768 L86.367,16.768 L86.348,18.037 C86.289,19.977 85.898,21.540 85.176,22.725 L88.564,22.725 L88.564,16.768 ZM76.680,20.947 L73.174,20.947 L73.174,25.000 L70.352,25.000 L70.352,14.434 L73.174,14.434 L73.174,18.672 L76.680,18.672 L76.680,14.434 L79.512,14.434 L79.512,25.000 L76.680,25.000 L76.680,20.947 ZM65.371,18.477 L61.836,25.000 L59.004,25.000 L59.004,14.434 L61.836,14.434 L61.836,20.947 L65.371,14.434 L68.193,14.434 L68.193,25.000 L65.371,25.000 L65.371,18.477 ZM54.570,25.000 L50.908,19.189 L49.219,19.189 L49.219,25.000 L46.289,25.000 L46.289,10.781 L49.219,10.781 L49.219,16.475 L50.557,16.475 L54.033,10.781 L57.607,10.781 L53.223,17.510 L58.066,25.000 L54.570,25.000 Z" class="cls-3"/>
  </g>
</svg>
