<svg xmlns="http://www.w3.org/2000/svg" xmlns:xlink="http://www.w3.org/1999/xlink" preserveAspectRatio="xMidYMid" width="29.938" height="29" viewBox="0 0 29.938 29">
  <defs>
    <style>
      .cls-1 {
        fill: #efc724;
        fill-rule: evenodd;
      }
    </style>
  </defs>
  <path d="M29.307,13.137 C29.897,12.556 30.105,11.704 29.851,10.912 C29.596,10.120 28.931,9.555 28.115,9.435 L20.856,8.370 C20.547,8.325 20.280,8.129 20.142,7.846 L16.896,1.207 C16.532,0.461 15.792,-0.003 14.968,-0.003 C14.145,-0.003 13.405,0.461 13.041,1.207 L9.795,7.846 C9.657,8.130 9.389,8.325 9.080,8.371 L1.821,9.435 C1.005,9.555 0.340,10.121 0.085,10.913 C-0.169,11.705 0.039,12.557 0.629,13.137 L5.881,18.305 C6.105,18.525 6.208,18.843 6.155,19.153 L4.916,26.450 C4.806,27.093 4.973,27.717 5.384,28.210 C6.024,28.978 7.142,29.212 8.035,28.738 L14.526,25.293 C14.798,25.149 15.139,25.150 15.410,25.293 L21.902,28.738 C22.218,28.906 22.555,28.991 22.902,28.991 C23.537,28.991 24.138,28.706 24.552,28.210 C24.964,27.717 25.131,27.092 25.021,26.450 L23.781,19.153 C23.728,18.843 23.831,18.525 24.055,18.305 L29.307,13.137 Z" class="cls-1"/>
</svg>
