<svg xmlns="http://www.w3.org/2000/svg" xmlns:xlink="http://www.w3.org/1999/xlink" preserveAspectRatio="xMidYMid" width="33" height="30" viewBox="0 0 33 30">
  <defs>
    <style>
      .cls-1 {
        fill: #fd0200;
        fill-rule: evenodd;
      }
    </style>
  </defs>
  <path d="M32.714,5.978 C32.457,5.652 32.063,5.461 31.645,5.461 L5.842,5.461 L5.459,1.224 C5.396,0.530 4.810,-0.000 4.109,-0.000 L1.355,-0.000 C0.607,-0.000 -0.000,0.602 -0.000,1.344 C-0.000,2.085 0.607,2.688 1.355,2.688 L2.870,2.688 L4.355,19.103 C4.356,19.122 4.355,19.141 4.356,19.160 C4.359,19.212 4.366,19.262 4.374,19.312 L4.428,19.912 C4.429,19.924 4.431,19.935 4.432,19.946 C4.597,21.362 5.326,22.587 6.381,23.417 C5.834,24.108 5.507,24.979 5.507,25.924 C5.507,28.171 7.350,29.999 9.616,29.999 C11.882,29.999 13.725,28.171 13.725,25.924 C13.725,25.437 13.638,24.970 13.480,24.537 L20.898,24.537 C20.739,24.970 20.652,25.437 20.652,25.924 C20.652,28.171 22.496,29.999 24.761,29.999 C27.027,29.999 28.870,28.171 28.870,25.924 C28.870,23.677 27.027,21.848 24.761,21.848 L9.625,21.848 C8.596,21.848 7.699,21.233 7.311,20.335 L28.971,19.072 C29.562,19.038 30.063,18.626 30.206,18.056 L32.961,7.131 C33.061,6.730 32.970,6.305 32.714,5.978 L32.714,5.978 Z" class="cls-1"/>
</svg>
