<svg xmlns="http://www.w3.org/2000/svg" xmlns:xlink="http://www.w3.org/1999/xlink" preserveAspectRatio="xMidYMid" width="10" height="12" viewBox="0 0 10 12">
  <defs>
    <style>
      .cls-1 {
        fill: #44453f;
        fill-rule: evenodd;
      }
    </style>
  </defs>
  <path d="M0.991,6.985 C0.446,6.985 0.004,6.543 0.004,5.998 C0.004,5.453 0.446,5.011 0.991,5.011 L2.009,5.011 L2.009,0.983 C2.009,0.438 2.451,-0.004 2.996,-0.004 L6.505,-0.004 C8.432,-0.004 9.999,1.563 9.999,3.490 C9.999,5.417 8.432,6.985 6.505,6.985 L3.983,6.985 L3.983,8.019 L6.004,8.019 C6.549,8.019 6.991,8.461 6.991,9.007 C6.991,9.552 6.549,9.994 6.004,9.994 L3.983,9.994 L3.983,11.013 C3.983,11.558 3.541,12.000 2.996,12.000 C2.451,12.000 2.009,11.558 2.009,11.013 L2.009,9.994 L0.991,9.994 C0.446,9.994 0.004,9.552 0.004,9.007 C0.004,8.461 0.446,8.019 0.991,8.019 L2.009,8.019 L2.009,6.985 L0.991,6.985 ZM3.983,5.011 L6.505,5.011 C7.343,5.011 8.025,4.329 8.025,3.490 C8.025,2.653 7.343,1.971 6.505,1.971 L3.983,1.971 L3.983,5.011 Z" class="cls-1"/>
</svg>
