<svg xmlns="http://www.w3.org/2000/svg" xmlns:xlink="http://www.w3.org/1999/xlink" preserveAspectRatio="xMidYMid" width="20" height="20" viewBox="0 0 20 20">
  <defs>
    <style>
      .cls-1 {
        fill: #fd0200;
        fill-rule: evenodd;
      }
    </style>
  </defs>
  <path d="M19.561,19.560 C19.003,20.118 18.099,20.118 17.541,19.560 L14.687,16.707 C14.129,16.149 14.129,15.246 14.687,14.688 C15.244,14.131 16.149,14.131 16.706,14.688 L19.561,17.542 C20.119,18.099 20.119,19.003 19.561,19.560 ZM8.207,16.407 C3.674,16.407 -0.000,12.735 -0.000,8.203 C-0.000,3.672 3.674,-0.000 8.207,-0.000 C12.738,0.004 16.410,3.674 16.414,8.203 C16.414,12.735 12.739,16.407 8.207,16.407 ZM8.207,2.853 C5.251,2.853 2.854,5.248 2.854,8.203 C2.854,11.159 5.251,13.554 8.207,13.554 C11.161,13.550 13.555,11.157 13.559,8.203 C13.559,5.248 11.163,2.853 8.207,2.853 Z" class="cls-1"/>
</svg>
